HIERARCHY
ROOT root     
{
	OFFSET 0.0000 0.0000 0.0000
	CHANNELS 6 Xposition Yposition Zposition Zrotation Yrotation Xrotation
	JOINT pelvis   
	{
		OFFSET 0.0000 0.0000 0.0000
		CHANNELS 3 Zrotation Yrotation Xrotation
		JOINT thorax   
		{
			OFFSET 0.0000 23.0750 -5.0000
			CHANNELS 3 Zrotation Yrotation Xrotation
			JOINT rclavicle
			{
				OFFSET 0.0000 28.0009 0.0000
				CHANNELS 3 Zrotation Yrotation Xrotation
				JOINT rhumerus 
				{
					OFFSET -18.5725 5.5939 0.0000
					CHANNELS 3 Zrotation Yrotation Xrotation
					JOINT rradius  
					{
						OFFSET -24.8459 0.0000 0.0000
						CHANNELS 3 Zrotation Yrotation Xrotation
						JOINT rhand    
						{
							OFFSET -24.5477 0.0000 0.0000
							CHANNELS 3 Zrotation Yrotation Xrotation
							End Site
							{
								OFFSET -8.1826 0.0000 0.0000
							}
						}
					}
				}
			}
			JOINT lclavicle
			{
				OFFSET 0.0000 28.0009 0.0000
				CHANNELS 3 Zrotation Yrotation Xrotation
				JOINT lhumerus 
				{
					OFFSET 18.5725 5.5939 0.0000
					CHANNELS 3 Zrotation Yrotation Xrotation
					JOINT lradius  
					{
						OFFSET 24.8459 0.0000 0.0000
						CHANNELS 3 Zrotation Yrotation Xrotation
						JOINT lhand    
						{
							OFFSET 24.5477 0.0000 0.0000
							CHANNELS 3 Zrotation Yrotation Xrotation
							End Site
							{
								OFFSET 8.1826 0.0000 0.0000
							}
						}
					}
				}
			}
			JOINT head     
			{
				OFFSET 0.0000 35.2030 0.0000
				CHANNELS 3 Zrotation Yrotation Xrotation
				End Site
				{
					OFFSET 0.0000 11.7343 0.0000
				}
			}
		}
		JOINT rfemur   
		{
			OFFSET -8.2817 0.0000 0.0000
			CHANNELS 3 Zrotation Yrotation Xrotation
			JOINT rtibia   
			{
				OFFSET 0.0000 -43.3627 0.0000
				CHANNELS 3 Zrotation Yrotation Xrotation
				JOINT rfoot    
				{
					OFFSET 0.0000 -38.2947 0.0000
					CHANNELS 3 Zrotation Yrotation Xrotation
					JOINT rtoes    
					{
						OFFSET 0.0000 0.0000 16.6054
						CHANNELS 3 Zrotation Yrotation Xrotation
						End Site
						{
							OFFSET 0.0000 0.0000 5.5351
						}
					}
				}
			}
		}
		JOINT lfemur   
		{
			OFFSET 8.2817 0.0000 0.0000
			CHANNELS 3 Zrotation Yrotation Xrotation
			JOINT ltibia   
			{
				OFFSET 0.0000 -43.3627 0.0000
				CHANNELS 3 Zrotation Yrotation Xrotation
				JOINT lfoot    
				{
					OFFSET 0.0000 -38.2947 0.0000
					CHANNELS 3 Zrotation Yrotation Xrotation
					JOINT ltoes    
					{
						OFFSET 0.0000 0.0000 16.6054
						CHANNELS 3 Zrotation Yrotation Xrotation
						End Site
						{
							OFFSET 0.0000 0.0000 5.5351
						}
					}
				}
			}
		}
	}
}
MOTION
Frames: 20
Frame Time: .0333333
27.295 80.165 12.138 -15.4572 -88.0392 50.8048 0 -0 0 5.06906 -16.6668 14.2224 25.2298 -14.875 -4.66789e-05 53.2163 4.11285 22.5374 180 59.5692 180 -17.6217 9.71464 -1.50928 -11.1758 6.71505 -9.55024e-06 -63.7942 -7.87902 12.8984 -180 -50.8619 180 12.026 -3.20341 -0.337499 9.45289 4.91718 -27.8771 10.764 -27.2606 -64.3176 -0 -0 41.6735 3.80175e-06 2.97936 6.18256 0.321205 7.44616e-07 -71.5472 -17.7202 13.8195 -65.195 -0 -0 48.9097 3.6971e-06 10.0918 -8.67592 -1.5379 -1.12154e-05 -31.6432 
27.217 80.178 12.113 -12.2916 -87.6015 47.5045 0 -0 0 5.16447 -16.4963 14.118 25.2427 -14.8375 -9.55796e-05 53.2399 4.19566 22.3913 180 59.4362 180 -17.7234 9.79139 -1.53018 -11.1844 6.8362 1.85675e-06 -63.8089 -7.93622 13.2139 -180 -50.8137 180 12.0212 -3.21006 -0.338085 9.52197 4.87067 -27.9782 10.7952 -27.5314 -64.062 -0 -0 41.711 3.52784e-06 2.77982 6.07742 0.294507 -2.3002e-06 -71.5804 -17.4619 13.5866 -64.942 -0 -0 48.8596 2.93767e-06 10.0121 -8.63835 -1.5189 5.11949e-06 -31.7139 
27.132 80.195 12.085 -10.0262 -87.141 45.1007 0 -0 0 5.26737 -16.3072 13.9953 25.2444 -14.7913 7.09706e-06 53.2773 4.31417 22.2126 -180 59.3179 -180 -17.7684 9.90563 -1.55215 -11.2026 6.96796 -3.87978e-06 -63.8276 -7.99048 13.5542 -180 -50.7663 180 12.0097 -3.21876 -0.338706 9.59442 4.82498 -28.0873 10.8269 -27.8118 -63.7872 -0 -0 41.7348 -1.7681e-06 2.57251 5.97328 0.267896 3.56838e-06 -71.612 -17.1958 13.3483 -64.6729 -0 -0 48.7956 3.08865e-07 9.92585 -8.59338 -1.49775 1.65128e-05 -31.7957 
27.043 80.216 12.056 -8.33976 -86.6735 43.267 0 -0 0 5.37877 -16.0977 13.852 25.2282 -14.7293 -1.02929e-05 53.3385 4.46499 21.9953 180 59.2222 180 -17.7448 10.0511 -1.57293 -11.2325 7.11263 -3.30185e-06 -63.845 -8.04448 13.917 -180 -50.7231 180 11.9915 -3.22781 -0.3391 9.6654 4.78498 -28.2035 10.8594 -28.1003 -63.4951 -0 -0 41.7465 -4.12266e-06 2.35939 5.87049 0.241504 3.59073e-06 -71.6415 -16.9237 13.1025 -64.3918 -0 -0 48.717 -5.81465e-06 9.83377 -8.54062 -1.47458 9.55235e-07 -31.8858 
26.949 80.242 12.024 -7.03353 -86.1882 41.8155 0 -0 0 5.50377 -15.8622 13.679 25.1905 -14.6584 -1.76155e-05 53.4242 4.6549 21.7388 180 59.1495 180 -17.6657 10.2048 -1.58985 -11.2715 7.26475 6.98338e-06 -63.869 -8.0952 14.3023 -180 -50.684 180 11.964 -3.23917 -0.339492 9.73002 4.74635 -28.3266 10.8952 -28.3959 -63.1931 -0 -0 41.7429 1.44994e-06 2.13664 5.76944 0.2149 -3.19699e-06 -71.6652 -16.6452 12.8473 -64.1041 -0 -0 48.6252 7.81776e-06 9.73797 -8.47774 -1.44926 1.6389e-05 -31.9981 
26.851 80.272 11.991 -5.96047 -85.6845 40.5979 0 -0 0 5.63668 -15.605 13.4805 25.1238 -14.5618 1.78967e-05 53.5513 4.86583 21.433 180 59.1035 180 -17.5358 10.3579 -1.60176 -11.3228 7.43074 -1.028e-05 -63.8923 -8.15156 14.71 -180 -50.6533 180 11.9376 -3.24734 -0.339602 9.78121 4.71555 -28.4549 10.9332 -28.7032 -62.8777 -0 -0 41.725 -3.28057e-06 1.91176 5.66984 0.188905 2.36229e-06 -71.6885 -16.363 12.5817 -63.8045 -0 -0 48.5175 -3.17924e-06 9.63827 -8.40734 -1.42225 1.58404e-05 -32.1113 
26.749 80.306 11.957 -5.02529 -85.1604 39.5261 0 -0 0 5.78111 -15.3165 13.2485 25.0257 -14.4478 -0.000140686 53.7116 5.09639 21.0805 -180 59.0832 -180 -17.3932 10.4825 -1.6078 -11.3825 7.60273 -8.66128e-06 -63.9195 -8.21089 15.1393 -180 -50.6333 180 11.9086 -3.25337 -0.339388 9.81322 4.68424 -28.5914 10.9742 -29.0207 -62.5566 -0 -0 41.693 1.40785e-06 1.68185 5.57207 0.163404 3.84161e-06 -71.7063 -16.0771 12.302 -63.4985 -0 -0 48.3952 -1.09841e-06 9.53693 -8.326 -1.39361 -3.53584e-06 -32.2392 
26.644 80.344 11.922 -4.20546 -84.6237 38.5727 0 -0 0 5.93636 -14.9893 12.9805 24.8942 -14.3129 0.000181433 53.9022 5.33992 20.6849 180 59.086 180 -17.2725 10.5602 -1.60839 -11.4483 7.77664 -9.88403e-07 -63.9505 -8.27466 15.5898 -180 -50.6259 180 11.8822 -3.25594 -0.338924 9.81882 4.64695 -28.7348 11.0177 -29.3519 -62.2312 -0 -0 41.6497 -2.47602e-06 1.44887 5.47585 0.138299 -9.259e-08 -71.7183 -15.7907 12.0068 -63.1852 -0 -0 48.2568 -2.18898e-06 9.43444 -8.23355 -1.36322 2.67915e-07 -32.3847 
26.534 80.386 11.888 -3.41075 -84.0764 37.647 0 -0 0 6.09378 -14.6225 12.6814 24.7299 -14.1499 0.000121132 54.1266 5.58382 20.2428 180 59.1108 180 -17.2053 10.5857 -1.60586 -11.5187 7.95509 1.3712e-05 -63.9826 -8.35459 16.0654 -180 -50.6358 180 11.8637 -3.25077 -0.337809 9.79499 4.60061 -28.8892 11.0596 -29.6989 -61.9016 -0 -0 41.5927 7.67895e-07 1.2189 5.38123 0.114299 -6.04539e-07 -71.73 -15.5091 11.6959 -62.8631 -0 -0 48.0998 3.35027e-06 9.33036 -8.13132 -1.33136 -1.76496e-05 -32.53 
26.422 80.432 11.855 -2.62609 -83.5202 36.732 0 -0 0 6.2477 -14.2102 12.3543 24.5315 -13.9577 2.45594e-05 54.3745 5.8247 19.7573 180 59.1578 180 -17.2239 10.5557 -1.60305 -11.5907 8.13461 1.35758e-05 -64.0143 -8.45367 16.5667 -180 -50.6649 180 11.8566 -3.23642 -0.336113 9.73837 4.53716 -29.054 11.0982 -30.0671 -61.5697 -0 -0 41.5271 -5.21786e-07 0.994605 5.28826 0.0916989 -1.38954e-07 -71.7438 -15.2366 11.3714 -62.5271 -0 -0 47.9226 5.05007e-07 9.22435 -8.01991 -1.29802 -1.21582e-06 -32.667 
26.305 80.481 11.824 -1.84114 -82.9592 35.8188 0 -0 0 6.3957 -13.7425 11.9971 24.3047 -13.7428 -9.84506e-05 54.6276 6.07515 19.2338 180 59.225 180 -17.3551 10.4692 -1.60217 -11.6587 8.30422 -5.97135e-06 -64.0495 -8.57084 17.0936 -180 -50.7114 180 11.8577 -3.21485 -0.333898 9.64883 4.44208 -29.2304 11.131 -30.4551 -61.2334 -0 -0 41.4497 -2.17376e-07 0.774905 5.19849 0.0702006 4.2353e-08 -71.7591 -14.9751 11.0331 -62.1782 -0 -0 47.7246 -2.518e-06 9.1158 -7.89669 -1.26292 -9.15197e-06 -32.8195 
26.185 80.535 11.795 -1.02909 -82.3913 34.8767 0 -0 0 6.5288 -13.2143 11.6174 24.0494 -13.5002 -4.01905e-05 54.8772 6.34155 18.665 -180 59.3227 -180 -17.5979 10.3431 -1.60529 -11.719 8.46321 2.62946e-05 -64.088 -8.7106 17.6474 -180 -50.7804 180 11.87 -3.18518 -0.331212 9.52961 4.3079 -29.415 11.1523 -30.8614 -60.8939 -0 -0 41.3653 9.2325e-07 0.563504 5.11315 0.0502003 8.2357e-08 -71.7787 -14.7304 10.6852 -61.8134 -0 -0 47.5031 8.27457e-07 9.00276 -7.76259 -1.22594 -1.16396e-05 -32.9802 
26.06 80.594 11.769 -0.205378 -81.8195 33.9207 0 -0 0 6.63985 -12.6221 11.218 23.7679 -13.235 -6.03475e-05 55.1069 6.64757 18.0484 180 59.4602 180 -17.939 10.194 -1.61316 -11.7673 8.60373 1.14762e-05 -64.1292 -8.87257 18.2256 -180 -50.8669 180 11.8893 -3.14897 -0.32801 9.38625 4.12371 -29.6061 11.1583 -31.2867 -60.544 -0 -0 41.2691 -2.89739e-07 0.360097 5.03382 0.0316002 -3.61422e-08 -71.806 -14.5051 10.332 -61.4303 -0 -0 47.2578 5.75854e-06 8.88363 -7.61717 -1.1869 9.46939e-06 -33.1482 
25.93 80.657 11.746 0.643976 -81.2522 32.9265 0 -0 0 6.71823 -11.9735 10.8183 23.4522 -12.9328 9.22138e-05 55.3199 7.00833 17.3716 180 59.6553 180 -18.3295 10.0533 -1.62602 -11.8042 8.73502 2.11561e-06 -64.1666 -9.06636 18.8255 -180 -50.9694 180 11.9202 -3.10361 -0.324112 9.22582 3.89177 -29.7988 11.1442 -31.7337 -60.1769 -0 -0 41.1634 -2.82356e-08 0.170798 4.9627 0.0148 1.99355e-08 -71.8452 -14.3019 9.98108 -61.0145 -0 -0 46.9861 1.02896e-05 8.75667 -7.46284 -1.14611 3.4719e-06 -33.3087 
25.795 80.726 11.725 1.48053 -80.6924 31.9332 0 -0 0 6.76331 -11.2594 10.4114 23.1059 -12.6104 0.0001255 55.4878 7.46982 16.6267 180 59.9326 180 -18.7362 9.92344 -1.64112 -11.821 8.83965 2.36488e-05 -64.2113 -9.27592 19.4405 -180 -51.0853 180 11.9496 -3.05715 -0.319995 9.05805 3.59489 -29.9839 11.1053 -32.1898 -59.7899 -0 -0 41.044 5.02554e-09 -0.0128002 4.90227 -0.0011 1.46998e-09 -71.8902 -14.1207 9.63622 -60.5744 -0 -0 46.6897 -5.55897e-06 8.6204 -7.29664 -1.103 6.78726e-07 -33.4912 
25.655 80.8 11.708 2.31075 -80.1326 30.9295 0 -0 0 6.76953 -10.4996 10.0172 22.7107 -12.2477 -2.98991e-05 55.621 8.05069 15.7906 180 60.3229 180 -19.0805 9.83174 -1.65632 -11.8242 8.93242 1.67845e-05 -64.25 -9.51234 20.064 -180 -51.2089 180 11.9838 -3.00597 -0.315598 8.89048 3.24564 -30.1583 11.0377 -32.6595 -59.3683 -0 -0 40.9095 2.41527e-07 -0.183695 4.85557 -0.0155002 -3.43905e-07 -71.9489 -13.9613 9.30537 -60.0976 -0 -0 46.3671 -4.63313e-07 8.47438 -7.12153 -1.05819 -2.7557e-06 -33.6643 
25.51 80.88 11.694 3.10198 -79.5854 29.9461 0 -0 0 6.73819 -9.68836 9.63047 22.2704 -11.8613 4.6767e-05 55.6882 8.80235 14.856 -180 60.8574 -180 -19.3264 9.7597 -1.66576 -11.8052 8.99892 1.48125e-05 -64.2928 -9.75864 20.6857 -180 -51.3401 180 12.0087 -2.95871 -0.311298 8.73389 2.83128 -30.3115 10.9402 -33.1274 -58.9153 -0 -0 40.7573 3.03798e-07 -0.352006 4.82437 -0.0295997 -4.98164e-07 -72.0131 -13.8206 8.9901 -59.5921 -0 -0 46.0214 -7.63283e-06 8.31871 -6.93443 -1.01141 -6.16159e-07 -33.8648 
25.36 80.966 11.681 3.84539 -79.0463 28.9896 0 -0 0 6.67273 -8.84808 9.26403 21.7644 -11.4358 8.87547e-05 55.6982 9.74397 13.8007 -180 61.5662 -180 -19.4096 9.70798 -1.66407 -11.7719 9.0521 -3.21366e-05 -64.3311 -10.0172 21.2948 -180 -51.4716 180 12.0291 -2.91351 -0.307008 8.59179 2.36777 -30.4378 10.8128 -33.5966 -58.4182 -0 -0 40.5825 -3.88811e-07 -0.513504 4.81131 -0.0431007 -1.26051e-10 -72.0831 -13.6945 8.69713 -59.0482 -0 -0 45.6514 -6.22106e-06 8.15498 -6.73827 -0.96332 -9.17878e-07 -34.0651 
25.207 81.058 11.672 4.52385 -78.5206 28.0716 0 -0 0 6.58069 -7.9922 8.92062 21.1828 -10.9685 -4.27076e-05 55.6373 10.903 12.6116 180 62.4869 180 -19.3071 9.65093 -1.64543 -11.7261 9.09516 -5.12622e-05 -64.3628 -10.2817 21.8796 -180 -51.5991 180 12.0417 -2.87184 -0.303009 8.46762 1.86292 -30.5341 10.6565 -34.0598 -57.8742 -0 -0 40.3808 7.4856e-07 -0.669697 4.81834 -0.0562993 -1.16047e-07 -72.1573 -13.5762 8.42491 -58.4693 -0 -0 45.2626 -7.46012e-06 7.98582 -6.53327 -0.914508 -6.75208e-06 -34.2662 
25.052 81.156 11.664 5.12973 -78.0091 27.2067 0 -0 0 6.46617 -7.11804 8.59408 20.5304 -10.4829 4.53955e-05 55.4629 12.3207 11.2945 180 63.6474 180 -19.0475 9.53763 -1.60373 -11.6604 9.12086 2.72295e-05 -64.3952 -10.5391 22.4351 -180 -51.7209 180 12.0403 -2.84039 -0.299606 8.36535 1.31254 -30.594 10.4699 -34.5049 -57.2845 -0 -0 40.154 -3.9882e-09 -0.829498 4.84604 -0.0700992 -6.59085e-07 -72.2254 -13.4646 8.17454 -57.8667 -0 -0 44.8566 -3.70628e-06 7.81415 -6.31686 -0.865102 -1.79576e-06 -34.4926 
